<?xml version="1.0" encoding="utf-8"?>
<svg viewBox="114.898 253.821 410.398 215.172" xmlns="http://www.w3.org/2000/svg">
  <g transform="matrix(1, 0, 0, 1, -98.063722, -100.156351)">
    <path fill-rule="evenodd" clip-rule="evenodd" d="M 572.66 503.666 C 564.786 503.666 557.639 503.666 550.096 503.666 C 550.096 501.365 550.021 499.335 550.114 497.314 C 550.27 493.87 548.747 492.585 545.763 492.598 C 530.825 492.657 515.887 492.676 500.95 492.61 C 497.871 492.596 496.546 494.166 496.543 497.393 C 496.532 508.893 496.521 520.395 496.54 531.895 C 496.545 535.105 498.058 536.855 500.975 536.861 C 515.913 536.887 530.85 536.882 545.788 536.866 C 548.691 536.863 550.264 535.378 550.122 531.975 C 550.038 529.952 550.106 527.921 550.106 525.646 C 557.712 525.646 564.965 525.646 572.412 525.646 C 572.412 531.847 572.967 537.923 572.276 543.819 C 571.335 551.866 564.259 557.959 556.096 558.03 C 534.357 558.219 512.616 558.275 490.88 558.034 C 480.717 557.921 474.054 549.918 474.033 538.73 C 474.006 525.165 474.027 511.599 474.028 498.035 C 474.028 496.452 474.028 494.868 474.028 492.635 C 470.706 492.635 467.807 492.635 464.906 492.635 C 443.967 492.635 423.028 492.626 402.09 492.636 C 397.247 492.639 396.485 493.45 396.47 498.738 C 396.441 509.355 396.443 519.971 396.47 530.587 C 396.484 535.483 397.733 536.884 402.135 536.894 C 415.873 536.921 429.61 536.906 443.348 536.903 C 449.806 536.902 450.087 536.581 450.061 529.367 C 450.057 528.212 450.061 527.057 450.061 525.418 C 435.733 525.418 421.671 525.418 407.29 525.418 C 407.29 518.251 407.29 511.557 407.29 504.496 C 428.845 504.496 450.486 504.496 472.415 504.496 C 472.513 505.573 472.702 506.693 472.704 507.815 C 472.724 517.988 472.778 528.164 472.692 538.334 C 472.59 550.639 465.854 558.051 454.652 558.091 C 433.712 558.166 412.774 558.177 391.835 558.105 C 380.899 558.067 374.012 550.207 373.997 538.002 C 373.981 524.438 373.994 510.872 373.994 497.307 C 373.994 495.738 373.994 494.169 373.994 492.6 C 373.604 492.591 373.216 492.584 372.825 492.576 C 372.825 514.124 372.825 535.67 372.825 557.504 C 364.87 557.504 357.602 557.504 349.921 557.504 C 349.921 555.698 349.921 554.115 349.921 552.532 C 349.92 534.544 349.927 516.555 349.912 498.566 C 349.909 493.276 349.097 492.379 344.357 492.331 C 341.188 492.299 338.019 492.325 334.398 492.325 C 334.398 503.35 334.398 513.89 334.398 524.684 C 326.667 524.684 319.397 524.684 311.691 524.684 C 311.691 513.93 311.691 503.391 311.691 492.354 C 307.445 492.354 303.612 492.203 299.795 492.4 C 296.527 492.57 296.309 495.248 296.317 498.141 C 296.364 516.129 296.343 534.117 296.344 552.105 C 296.344 553.72 296.344 555.332 296.344 557.371 C 288.923 557.371 281.693 557.371 274.035 557.371 C 273.972 555.925 273.848 554.373 273.847 552.824 C 273.833 532.034 273.825 511.245 273.84 490.455 C 273.847 478.511 280.377 471.212 291.22 471.2 C 318.424 471.169 345.628 471.214 372.832 471.238 C 433.37 471.29 493.908 471.524 554.445 471.229 C 564.197 471.182 573.631 478.706 572.703 491.492 C 572.418 495.42 572.66 499.397 572.66 503.666 Z" style="opacity: 0.9;" transform="matrix(1, 0, 0, 1, 43.59706, -0.862908)"/>
    <path fill-rule="evenodd" clip-rule="evenodd" d="M 316.635 436.733 C 301.938 422.014 283.927 413.236 267.574 401.672 C 267.791 401.227 268.009 400.784 268.225 400.34 C 271.893 402.211 275.517 404.195 279.235 405.934 C 294.873 413.253 310.511 420.579 326.23 427.681 C 328.477 428.695 331.211 429.006 333.645 428.759 C 337.888 428.33 339.575 425.65 338.349 421.111 C 336.832 415.491 335.194 409.806 332.797 404.608 C 328.639 395.588 323.846 386.926 319.344 378.099 C 318.786 377.005 318.371 375.823 317.889 374.682 C 318.204 374.434 318.519 374.187 318.835 373.94 C 320.878 376.785 322.889 379.66 324.97 382.47 C 333.458 393.935 341.71 405.632 350.548 416.76 C 358.296 426.512 364.385 425.088 366.85 412.687 C 369.01 401.832 369.648 390.601 370.861 379.523 C 371.342 375.129 371.559 370.7 371.897 366.288 C 372.264 366.276 372.631 366.263 372.999 366.252 C 373.267 368.185 373.572 370.113 373.795 372.052 C 375.08 383.265 376.135 394.516 377.731 405.675 C 378.301 409.661 379.9 413.559 381.486 417.257 C 384.218 423.631 389.233 425.49 395.406 423.332 C 404.077 420.302 411.253 414.453 418.239 408.451 C 427.779 400.255 436.891 391.451 446.202 382.929 C 446.948 382.244 447.806 381.709 448.848 381.429 C 436.651 397.386 421.702 410.6 411.581 428.632 C 429.916 422.011 445.154 409.199 462.193 400.093 C 449.818 411.821 434.823 419.933 423.959 433.597 C 424.165 434.213 424.372 434.83 424.578 435.446 C 428.125 434.972 431.81 435.019 435.197 433.932 C 450.879 428.905 466.485 423.589 482.101 418.319 C 487.485 416.501 492.823 414.515 498.18 412.606 C 498.373 413.155 498.566 413.705 498.759 414.253 C 494.836 416.15 490.884 417.984 486.991 419.957 C 473.372 426.856 459.743 433.734 446.198 440.808 C 444.094 441.909 442.272 443.833 440.559 445.652 C 437.964 448.407 438.192 451.296 441.556 452.471 C 447.461 454.532 453.537 456.705 459.647 457.203 C 481.278 458.966 502.954 460.036 524.612 461.387 C 525.9 461.466 527.18 461.706 528.423 462.428 C 425.188 462.428 321.952 462.428 218.717 462.428 C 218.701 462.186 218.687 461.943 218.671 461.702 C 221.95 461.459 225.229 461.16 228.511 460.983 C 245.658 460.057 262.821 459.387 279.95 458.145 C 286.533 457.668 293.077 456.104 299.559 454.611 C 301.273 454.216 303.684 452.471 303.961 450.946 C 304.224 449.486 302.486 446.719 301.004 445.884 C 292.606 441.163 284.18 436.416 275.459 432.507 C 264.756 427.713 253.747 423.75 242.888 419.375 C 241.827 418.947 240.887 418.151 240.069 416.967 C 265.642 423.273 290.198 434.11 316.635 436.733 Z" style="opacity: 0.9;" transform="matrix(1, 0, 0, 1, 43.59706, -0.862908)"/>
    <path fill-rule="evenodd" clip-rule="evenodd" d="M 272.146 492.53 C 259.615 492.53 247.431 492.53 234.869 492.53 C 234.869 514.344 234.869 535.797 234.869 557.52 C 227.222 557.52 219.957 557.52 212.317 557.52 C 212.317 535.875 212.317 514.433 212.317 492.413 C 199.52 492.413 187.082 492.413 174.374 492.413 C 174.374 485.153 174.374 478.472 174.374 471.404 C 206.989 471.404 239.43 471.404 272.146 471.404 C 272.146 478.317 272.146 485.161 272.146 492.53 Z" style="opacity: 0.9;" transform="matrix(1, 0, 0, 1, 43.59706, -0.862908)"/>
  </g>
</svg>