<?xml version="1.0" encoding="utf-8"?>
<svg viewBox="0 0 1440 320" xmlns="http://www.w3.org/2000/svg">
  <path fill-opacity="1" d="M -8.923 61.567 L 77.287 60.323 C 160.638 59.588 341.875 37.714 477.317 95.036 C 590.677 143.013 742.453 224.747 905.599 271.19 C 1068.745 317.633 1242.264 236.652 1379.096 295.663 L 1440.001 317.567 L 1440.001 -2.433 L 1359.505 -2.433 C 1279.009 -2.433 1118.017 -2.433 957.026 -2.433 C 796.034 -2.433 635.043 -2.433 474.051 -2.433 C 313.06 -2.433 152.068 -2.433 71.572 -2.433 L -8.923 -2.433 L -8.923 61.567 Z" style="fill: rgb(255, 255, 255);"/>
  <path fill-opacity="1" d="M -9.735 27.245 L 76.572 26.001 C 160.016 25.266 341.457 3.392 477.05 60.714 C 590.537 108.691 742.483 190.425 905.812 236.868 C 1069.14 283.311 1242.853 202.33 1379.839 261.341 L 1440.812 283.245 L 1440.812 -36.755 L 1360.225 -36.755 C 1279.639 -36.755 1118.468 -36.755 957.296 -36.755 C 796.124 -36.755 634.952 -36.755 473.781 -36.755 C 312.609 -36.755 151.437 -36.755 70.851 -36.755 L -9.735 -36.755 L -9.735 27.245 Z" style="fill: rgb(235, 229, 217);"/>
</svg>