<?xml version="1.0" encoding="utf-8"?>
<svg viewBox="0 0 1440 320" xmlns="http://www.w3.org/2000/svg">
  <path fill-opacity="1" d="M -8.924 257.375 L 77.383 258.619 C 160.827 259.354 342.268 281.228 477.861 223.906 C 591.348 175.929 743.294 94.195 906.623 47.752 C 1069.951 1.309 1243.664 82.29 1380.65 23.279 L 1441.623 1.375 L 1441.623 321.375 L 1361.036 321.375 C 1280.45 321.375 1119.279 321.375 958.107 321.375 C 796.935 321.375 635.763 321.375 474.592 321.375 C 313.42 321.375 152.248 321.375 71.662 321.375 L -8.924 321.375 L -8.924 257.375 Z" style="fill: rgb(255, 255, 255);"/>
  <path fill-opacity="1" d="M -8.112 286.83 L 78.098 288.074 C 161.449 288.809 342.686 310.683 478.128 253.361 C 591.488 205.384 743.264 123.65 906.41 77.207 C 1069.556 30.764 1243.075 111.745 1379.907 52.734 L 1440.812 30.83 L 1440.812 350.83 L 1360.316 350.83 C 1279.82 350.83 1118.828 350.83 957.837 350.83 C 796.845 350.83 635.854 350.83 474.862 350.83 C 313.871 350.83 152.879 350.83 72.383 350.83 L -8.112 350.83 L -8.112 286.83 Z" style="fill: rgb(33, 31, 34);"/>
</svg>